<svg width="411" height="116" viewBox="0 0 411 116" fill="none" xmlns="http://www.w3.org/2000/svg">
<path d="M368.854 79.625C368.854 84.2535 371.449 86.9355 375.861 86.9355C380.187 86.9355 382.652 84.2534 382.652 79.625V61.8887H386.979V79.625C386.978 86.5029 382.48 91.0448 375.861 91.0449C369.113 91.0449 364.57 86.5029 364.57 79.625V61.8887H368.854V79.625ZM256.307 61.4961C262.622 61.4961 266.775 64.87 267.338 70.4502H262.969C262.406 66.8599 260.287 65.1729 256.264 65.1729C252.457 65.1729 249.948 67.033 249.948 69.8447C249.948 72.1374 251.635 73.3489 254.966 73.7383L258.687 74.2139C264.872 74.906 267.9 77.7179 267.9 82.6924C267.9 87.7537 263.704 91.042 257.302 91.042C250.381 91.0419 246.055 87.4944 245.449 82.0439H249.861C250.467 85.6776 252.89 87.3643 257.346 87.3643C261.066 87.3641 263.574 85.5909 263.574 82.7793C263.574 80.4002 261.758 78.9724 258.211 78.583L254.317 78.1504C248.737 77.5015 245.665 74.7332 245.665 70.0615C245.665 64.7841 249.732 61.4962 256.307 61.4961ZM279.87 61.4961C286.186 61.4961 290.339 64.87 290.901 70.4502H286.532C285.97 66.8599 283.85 65.1729 279.827 65.1729C276.021 65.1729 273.512 67.033 273.512 69.8447C273.512 72.1374 275.199 73.3489 278.529 73.7383L282.25 74.2139C288.436 74.906 291.464 77.7178 291.464 82.6924C291.464 87.7537 287.268 91.042 280.865 91.042C273.944 91.0419 269.618 87.4944 269.013 82.0439H273.425C274.03 85.6776 276.454 87.3643 280.909 87.3643C284.629 87.3641 287.138 85.591 287.138 82.7793C287.138 80.4002 285.321 78.9724 281.774 78.583L277.881 78.1504C272.301 77.5015 269.229 74.7332 269.229 70.0615C269.229 64.7841 273.295 61.4963 279.87 61.4961ZM165.378 90.6992H160.793L158.327 83.6475H146.733L144.312 90.6992H139.683L150.108 61.8887H154.996L165.378 90.6992ZM181.157 84.6855L189.55 61.8887H195.952V90.6992H191.669V67.9014L183.104 90.6992H179.124L170.603 67.9014V90.6992H166.319V61.8887H172.549L181.157 84.6855ZM211.47 61.8887C216.228 61.8887 219.473 64.8301 219.473 69.1992C219.473 72.1841 217.959 74.5635 215.536 75.7314C218.781 76.8562 220.814 79.5817 220.814 83.1289C220.814 87.6708 217.613 90.6991 212.812 90.6992H197.974V61.8887H211.47ZM246.152 90.6992H241.567L239.102 83.6475H227.508L225.086 90.6992H220.457L230.882 61.8887H235.771L246.152 90.6992ZM317.106 90.6992H312.521L310.056 83.6475H298.462L296.04 90.6992H291.411L301.837 61.8887H306.725L317.106 90.6992ZM329.206 61.8887C336.819 61.8887 341.924 67.8581 341.924 76.8125C341.924 85.1614 337.166 90.6992 330.071 90.6992H318.045V61.8887H329.206ZM363.282 65.9551H347.752V74.001H362.027V78.0674H347.752V86.6758H363.282V90.6992H343.47V61.8887H363.282V65.9551ZM401.199 61.8887C406.693 61.8887 410.326 65.22 410.326 70.2812C410.326 73.8714 408.207 76.5536 404.833 77.5918C407.904 78.2407 409.202 80.0141 409.678 83.9072L410.456 90.6992H406.217L405.481 84.3828C405.049 80.8791 403.275 79.3652 399.252 79.3652H393.023V90.6992H388.74V61.8887H401.199ZM202.256 86.9355H211.859C214.671 86.9355 216.401 85.2914 216.401 82.6094C216.401 79.7113 214.455 77.8947 211.341 77.8945H202.256V86.9355ZM322.328 86.8057H329.639C334.613 86.8057 337.512 83.1283 337.512 76.8125C337.512 69.8481 334.31 65.8252 328.773 65.8252H322.328V86.8057ZM147.945 80.0137H157.072L152.444 66.7334L147.945 80.0137ZM228.719 80.0137H237.847L233.218 66.7334L228.719 80.0137ZM299.674 80.0137H308.801L304.173 66.7334L299.674 80.0137ZM393.023 75.6016H400.594C404.011 75.6014 406.001 73.8274 406.001 70.7129C406.001 67.5121 404.011 65.6525 400.594 65.6523H393.023V75.6016ZM202.256 74.1309H210.951C213.46 74.1308 215.061 72.4437 215.061 69.7617C215.061 67.2095 213.46 65.6524 210.951 65.6523H202.256V74.1309ZM185.138 24.291C193.011 24.291 198.289 30.3473 198.289 39.4746C198.289 48.1263 193.011 53.8799 185.138 53.8799C177.178 53.8797 171.944 48.1262 171.944 39.4746C171.945 30.3474 177.178 24.2912 185.138 24.291ZM155.561 47.5195L163.952 24.7227H170.354V53.5332H166.072V30.7354L157.507 53.5332H153.527L145.005 30.7354V53.5332H140.723V24.7227H146.952L155.561 47.5195ZM219.04 46.5254V24.7227H223.279V53.5332H218.736L204.115 30.7354V53.5332H199.833V24.7227H205.283L219.04 46.5254ZM185.138 28.2715C179.558 28.2716 176.314 32.4239 176.313 39.4746C176.313 46.0498 179.558 49.9002 185.138 49.9004C190.675 49.9004 193.876 46.0499 193.876 39.4746C193.876 32.4237 190.675 28.2715 185.138 28.2715Z" fill="#FFF993"/>
<path d="M26.4034 114.628C19.4049 116.495 11.6307 114.684 6.14261 109.196C0.654512 103.708 -1.15626 95.9341 0.710972 88.9356L26.4034 114.628ZM114.626 88.9356C116.493 95.934 114.683 103.708 109.195 109.196C103.707 114.684 95.9322 116.495 88.9336 114.628L114.626 88.9356ZM45.2735 104.319C35.9422 106.813 25.5761 104.397 18.2569 97.0782C10.9377 89.759 8.52168 79.3929 11.0147 70.0616L45.2735 104.319ZM104.316 70.0616C106.809 79.3929 104.393 89.759 97.0743 97.0782C89.755 104.397 79.3889 106.813 70.0577 104.319L104.316 70.0616ZM57.6651 29.1426C73.42 29.1426 86.1922 41.9142 86.1924 57.669C86.1924 73.424 73.4201 86.1963 57.6651 86.1963C41.9102 86.1961 29.1387 73.4239 29.1387 57.669C29.139 41.9143 41.9104 29.1428 57.6651 29.1426ZM18.2569 18.2598C25.5761 10.9407 35.9421 8.52541 45.2735 11.0186L11.0147 45.2764C8.52152 35.945 10.9376 25.579 18.2569 18.2598ZM70.0577 11.0186C79.389 8.52541 89.755 10.9407 97.0743 18.2598C104.393 25.579 106.81 35.945 104.316 45.2764L70.0577 11.0186ZM6.14261 6.14555C11.6307 0.652329 19.4049 -1.1585 26.4034 0.713906L0.710972 26.4063C-1.15623 19.4078 0.654533 11.6336 6.14261 6.14555ZM88.9336 0.71293C95.9322 -1.15439 103.707 0.655443 109.195 6.14359C114.683 11.6317 116.493 19.4068 114.626 26.4053L88.9336 0.71293Z" fill="#FFF993"/>
</svg>
